<?xml version="1.0" encoding="UTF-8" standalone="no"?>
<!-- Created with Inkscape (http://www.inkscape.org/) -->
<svg xmlns:dc="http://purl.org/dc/elements/1.1/" xmlns:cc="http://web.resource.org/cc/" xmlns:rdf="http://www.w3.org/1999/02/22-rdf-syntax-ns#" xmlns:svg="http://www.w3.org/2000/svg" xmlns="http://www.w3.org/2000/svg" xmlns:sodipodi="http://inkscape.sourceforge.net/DTD/sodipodi-0.dtd" xmlns:inkscape="http://www.inkscape.org/namespaces/inkscape" width="400" height="400" id="svg10016" sodipodi:version="0.32" inkscape:version="0.43" version="1.0" sodipodi:docbase="C:\Files\Pics\Misc Etc" sodipodi:docname="Penrose_octogon.svg">
  <defs id="defs10018"/>
  <sodipodi:namedview id="base" pagecolor="#ffffff" bordercolor="#666666" borderopacity="1.0" inkscape:pageopacity="0.0" inkscape:pageshadow="2" inkscape:zoom="1.3625" inkscape:cx="200" inkscape:cy="200" inkscape:document-units="px" inkscape:current-layer="layer1" inkscape:window-width="1024" inkscape:window-height="712" inkscape:window-x="-4" inkscape:window-y="-4"/>
  <metadata id="metadata10021">
    <rdf:RDF>
      <cc:Work rdf:about="">
        <dc:format>image/svg+xml</dc:format>
        <dc:type rdf:resource="http://purl.org/dc/dcmitype/StillImage"/>
      </cc:Work>
    </rdf:RDF>
  </metadata>
  <g inkscape:label="Layer 1" inkscape:groupmode="layer" id="layer1">
    <path style="fill:#e3d9e6;fill-opacity:1;fill-rule:evenodd;stroke:#000000;stroke-width:1.0000006px;stroke-linecap:butt;stroke-linejoin:miter;stroke-opacity:1" d="M 107.03674,56.153895 L 42.162425,120.6979 L 41.977544,232.12909 L 62.60388,251.87936 L 63.135494,123.92511 L 146.35288,40.036091 L 107.03674,56.153895 z " id="path10109" sodipodi:nodetypes="ccccccc"/>
    <path style="fill:#ffffdd;fill-opacity:1;fill-rule:evenodd;stroke:#000000;stroke-width:1.0000006px;stroke-linecap:butt;stroke-linejoin:miter;stroke-opacity:1" d="M 63.313231,124.83976 L 146.3168,40.036102 L 256.86975,39.49824 L 300.31946,57.783009 L 155.02596,59.399311 L 63.490967,152.09165 L 63.313231,124.83976 z " id="path10111" sodipodi:nodetypes="ccccccc"/>
    <path style="fill:#d0e5d9;fill-opacity:1;fill-rule:evenodd;stroke:#000000;stroke-width:1.0000006px;stroke-linecap:butt;stroke-linejoin:miter;stroke-opacity:1" d="M 138.34181,76.47376 L 155.12777,59.305889 L 300.31416,58.180705 L 299.95867,57.642832 L 353.28002,108.91947 L 374.49992,157.90496 L 291.60499,76.64746 L 138.34181,76.47376 z " id="path10113" sodipodi:nodetypes="cccccccc"/>
    <path style="fill:#d9e1fc;fill-opacity:1;fill-rule:evenodd;stroke:#000000;stroke-width:1.0000006px;stroke-linecap:butt;stroke-linejoin:miter;stroke-opacity:1" d="M 291.53466,76.7496 L 374.43083,157.87935 L 373.71988,238.22738 L 356.36051,281.00608 L 356.12384,171.71119 L 260.88025,76.61107 L 291.53466,76.7496 z " id="path10115" sodipodi:nodetypes="ccccccc"/>
    <path style="fill:#fbd3d3;fill-opacity:1;fill-rule:evenodd;stroke:#000000;stroke-width:1.0000006px;stroke-linecap:butt;stroke-linejoin:miter;stroke-opacity:1" d="M 336.95148,153.04598 L 356.31345,171.94303 L 356.35756,280.96596 L 299.53079,340.51785 L 250.89646,363.93634 L 336.5734,276.826 L 336.95148,153.04598 z " id="path10117" sodipodi:nodetypes="ccccccc"/>
    <path style="fill:#f7e2c6;fill-opacity:1;fill-rule:evenodd;stroke:#000000;stroke-width:1.0000006px;stroke-linecap:butt;stroke-linejoin:miter;stroke-opacity:1" d="M 336.46307,250.67356 L 336.56299,276.53872 L 250.84216,363.95999 L 146.11005,365.8 L 102.23413,346.21373 L 239.69879,345.8432 L 336.46307,250.67356 z " id="path10119" sodipodi:nodetypes="ccccccc"/>
    <path style="fill:#b5e3e5;fill-opacity:1;fill-rule:evenodd;stroke:#000000;stroke-width:1.0000006px;stroke-linecap:butt;stroke-linejoin:miter;stroke-opacity:1" d="M 257.6519,327.72413 L 239.81019,345.83527 L 102.3483,346.17936 L 44.399028,289.70591 L 25.5,246.55256 L 108.24144,327.21335 L 257.6519,327.72413 z " id="path10121" sodipodi:nodetypes="ccccccc"/>
    <path style="fill:#e6f4c5;fill-opacity:1;fill-rule:evenodd;stroke:#000000;stroke-width:1.0000006px;stroke-linecap:butt;stroke-linejoin:miter;stroke-opacity:1" d="M 42.263204,120.9173 L 41.995914,231.86724 L 139.13088,326.96665 L 108.55128,327.04422 L 25.557538,246.69651 L 25.82483,161.90002 L 42.263204,120.9173 z " id="path11869" sodipodi:nodetypes="ccccccc"/>
  </g>
</svg>